<svg width="1782" height="1782" viewBox="0 0 1782 1782" fill="none" xmlns="http://www.w3.org/2000/svg">
  <g transform="translate(101 0)">
    <path d="M1555.06 677.748C1503.23 966.704 1388.99 1224.08 1206.72 1450.22C1100.76 1581.69 974.285 1689.52 826.505 1772.25C801.432 1786.29 782.09 1784.54 757.83 1771.01C591.89 1678.46 456.869 1551.76 342.694 1401.19C327.717 1381.44 324.444 1364.64 333.79 1340.49C359.882 1273.1 395.396 1210.91 432.42 1149.38C438.946 1138.53 445.016 1126.35 459.341 1121.67C471.997 1130.95 468.728 1144.79 468.814 1156.94C469.313 1227.34 470.032 1297.76 468.815 1368.14C468.494 1386.7 473.448 1400.85 484.977 1414.39C565.085 1508.51 656.508 1589.49 760.908 1656C783.845 1670.62 802.166 1670.36 825.271 1655.99C950.884 1577.86 1057.46 1479.04 1149.57 1363.85C1162.48 1347.7 1168.21 1330.55 1168.17 1309.89C1167.79 1124.48 1167.39 939.062 1168.43 753.653C1168.64 715.015 1150.82 698.483 1114.9 697.162C1094.04 696.395 1073.13 696.854 1052.24 697.023C1043.03 697.097 1031.24 696.907 1027.94 706.215C1011.9 751.515 974.134 744.813 939.53 743.782C912.908 742.989 885.757 750.044 846.733 738.643C916.295 699.434 963.744 641.901 1042.64 643.914C1075.27 644.746 1107.95 643.455 1140.56 644.398C1209.13 646.38 1241.05 678.633 1241.2 746.543C1241.51 888.868 1241.23 1031.19 1241.2 1173.52C1241.19 1188.94 1241.19 1204.36 1241.19 1227.89C1273.38 1191.57 1289.37 1154.81 1307.86 1119.98C1440.88 869.386 1491.33 600.609 1483.5 318.965C1481.11 233.075 1482.22 232.2 1398.78 210.349C933.87 88.6006 502.226 174.229 96.4079 420.114C68.8281 436.825 44.7286 459.569 14.6757 469.91C3.31183 463.906 1.65334 454.534 1.56724 445.542C0.841427 369.834 0.768239 294.12 0.002487 218.413C-0.223508 196.058 14.9878 186.446 31.2717 177.548C181.673 95.3633 341.839 42.2051 511.387 17.7416C872.11 -34.307 1214.9 31.0688 1545.72 175.791C1571.26 186.966 1579.56 202.583 1579.94 229.645C1581.99 378.492 1581.14 527.066 1555.06 677.748Z" fill="#3F1D74" />
    <path d="M1326.05 312.017C1085.64 318.891 861.059 375.848 647.256 476.481C435.306 576.242 252.787 716.678 89.0542 890.56C56.3207 825.494 49.6729 760.143 30.3181 698.79C12.3676 641.889 32.4475 609.942 79.3012 576.592C293.426 424.18 528.794 324.378 787.452 280.357C986.076 246.553 1184.49 249.864 1381.73 293.019C1386.37 294.034 1390.49 297.417 1399.18 301.955C1374.82 318.152 1351.27 309.013 1326.05 312.017Z" fill="#D2D603" />
    <path d="M651.142 794.715C492.341 932.355 371.467 1096.09 279.178 1277.98C258.662 1278.31 255.036 1265.56 249.287 1256.02C213.533 1196.73 181.3 1135.61 152.664 1072.5C142.857 1050.88 144.115 1035.15 159.66 1015.85C388.542 731.573 677.583 537.387 1028.44 437.189C1130.14 408.146 1234.66 391.055 1341.2 392.201C1355.22 392.352 1369.84 389.892 1392.54 401.861C1108.4 471.288 867.806 608.086 651.142 794.715Z" fill="#D2D603" />
  </g>
</svg>
